<svg xmlns="http://www.w3.org/2000/svg" xmlns:xlink="http://www.w3.org/1999/xlink" viewBox="0 0 125 30"><defs><linearGradient id="a" x1="14.45" y1="-20.145" x2="14.45" y2="-49.854" gradientTransform="matrix(1 0 0 -1 0 -20)" gradientUnits="userSpaceOnUse"><stop offset="0" stop-color="#3d5c8a"/><stop offset="1" stop-color="#668ead"/></linearGradient><linearGradient id="b" x1="10.197" y1="-28.349" x2="10.197" y2="-46.55" xlink:href="#a"/><linearGradient id="c" x1="13.973" y1="-25.649" x2="13.973" y2="-48.193" xlink:href="#a"/><linearGradient id="d" x1="10.172" y1="-37.888" x2="10.172" y2="-42.793" xlink:href="#a"/></defs><path d="M14.4 29.9C6.4 30-.1 23.2 0 15S6.6.1 14.5.1a14.792 14.792 0 0 1 14.4 15 14.77 14.77 0 0 1-14.5 14.8Zm7.3-3.3a.52.52 0 0 0 .4-.2 15.459 15.459 0 0 0 2.7-2.4 13.83 13.83 0 0 0 3-11.4A13.652 13.652 0 0 0 12.7 1.3 13.717 13.717 0 0 0 1.1 16.8a13.546 13.546 0 0 0 6.8 10.3 8.778 8.778 0 0 0 5.2 1.5 8.192 8.192 0 0 0 6.7-11.1 26.396 26.396 0 0 0-2.5-4.7 83.05 83.05 0 0 0-5-7.1.483.483 0 0 1 0-.7c.8-1.1 1.6-2.2 2.4-3.2.2-.3.3-.2.6 0 2.1 2.8 4.1 5.5 5.9 8.4a29.73 29.73 0 0 1 2.9 5.6 10.459 10.459 0 0 1-.6 8.8c-.6.6-1.2 1.4-1.8 2Z" fill="url(#a)"/><path d="M3.8 20a5.494 5.494 0 0 1 .9-3.3 65.048 65.048 0 0 1 3.7-6.3c.4-.7.9-1.3 1.3-1.9.2-.2.2-.2.5 0a47.85 47.85 0 0 1 5.8 8.8 6.374 6.374 0 0 1 .4 4.3 6.39 6.39 0 0 1-6.6 5 6.587 6.587 0 0 1-6-5.5Zm6.3-4.4a4.55 4.55 0 0 0-4.6 4.7 4.603 4.603 0 1 0 9.2.1 4.633 4.633 0 0 0-4.6-4.8Z" fill="url(#b)"/><path d="M7.9 26.6a11.044 11.044 0 0 0 1.6.3 6.763 6.763 0 0 0 7.2-7.8A9.938 9.938 0 0 0 15 15a62.008 62.008 0 0 0-4.7-6.7c-.2-.3-.3-.5 0-.8a12.133 12.133 0 0 1 1-1.4c.4-.6.4-.6.8 0 1.5 2 3 4.1 4.5 6.2a43.912 43.912 0 0 1 2.7 4.7 7.754 7.754 0 0 1-5.8 11 6.516 6.516 0 0 1-5.1-1.1c-.2 0-.4 0-.5-.3Z" fill="url(#c)"/><path d="M8.8 17.9a.896.896 0 0 1 .9.9.55.55 0 0 0 .2.5c.4.5.4.5.9.1.4-.3.6-.8.9-1.1.2-.3.4-.2.6 0s.3.4 0 .6A3.482 3.482 0 0 0 11 20c-.2.2-.2.3 0 .6a3.33 3.33 0 0 0 1.1.9.632.632 0 0 1 .4.8c-.1.3-.3.6-.6.6a.64.64 0 0 1-.7-.5c-.1-.5-.5-.7-.7-1.1-.2-.2-.2-.2-.3.1a5.706 5.706 0 0 1-1.4 1.3c-.2.2-.5.1-.7-.2-.2-.2-.4-.5-.2-.7.4-.4.7-1 1.3-1.2.2-.1.2-.2.1-.3-.2-.2-.3-.4-.6-.4a.766.766 0 0 1-.8-1c0-.1 0-.2.1-.2.1-.1.2 0 .2.1l.3.3c.1.1.2.2.4 0 .1-.1.2-.2 0-.4l-.2-.2c-.1-.1-.2-.2-.2-.3 0-.3.1-.3.3-.3Z" fill="url(#d)"/><path d="M49 1.6v7.8h-4.5V1.6H43v9.3h7.5v1.9H52V9.4h-1.4V1.6Zm4.2 0v9.3h6.3V9.4h-4.8V6.5h3.7V5.1h-3.7v-2h4.8V1.6Zm13.9 0v3.5h-4.6V1.6H61v9.3h1.5V6.6h4.6v4.3h1.5V1.6Zm2.9 0v1.5h3.2v7.8h1.5V3.1h3.2V1.6Zm10.7 3.9V3.1h2.6a1.72 1.72 0 0 1 .8.1 1.156 1.156 0 0 1 0 2.2 1.72 1.72 0 0 1-.8.1Zm0 5.4V7h2.8a4.307 4.307 0 0 0 1.5-.3 2.772 2.772 0 0 0 1.3-2.3A2.423 2.423 0 0 0 85 2.1a3.506 3.506 0 0 0-1.6-.3h-4.3V11h1.6ZM50.2 23.8a2.775 2.775 0 0 0-1.4-2.4 3.506 3.506 0 0 0-1.6-.3h-2.7v-2.4h4.9v-1.5H43v9.3h4.2a5.688 5.688 0 0 0 1.6-.3 2.585 2.585 0 0 0 1.4-2.4Zm-1.6 0a1.206 1.206 0 0 1-.8 1.2 1.55 1.55 0 0 1-.8.2h-2.5v-2.6H47a1.72 1.72 0 0 1 .8.1 1.011 1.011 0 0 1 .8 1.1Zm9.4 2.7h1.6l-3.7-9.3h-1.5l-3.7 9.3h1.6l.6-1.7h4.4Zm-2.8-7.4 1.6 4.3h-3.3Zm13.7 1.4a4.693 4.693 0 1 0-4.5 6 4.656 4.656 0 0 0 4.5-3.2l-1.5-.5a3.01 3.01 0 0 1-3 2.3 3.074 3.074 0 0 1-3.1-3.2 3.077 3.077 0 0 1 3.1-3.2 3.033 3.033 0 0 1 3 2.2 6.579 6.579 0 0 0 1.5-.4Zm10.1 0a4.693 4.693 0 1 0-4.5 6 4.656 4.656 0 0 0 4.5-3.2l-1.5-.5a3.01 3.01 0 0 1-3 2.3 3.074 3.074 0 0 1-3.1-3.2 3.077 3.077 0 0 1 3.1-3.2 3.033 3.033 0 0 1 3 2.2 8.33 8.33 0 0 0 1.5-.4Zm1.3-3.2v9.3h6.3v-1.4h-4.8v-2.9h3.7v-1.4h-3.7v-2h4.8v-1.5l-6.3-.1Zm11.8.5 1.9-2.2c-.3-.3-.7-.6-1.1-1L91 16.8Zm2.4 8.7H96v-9.3h-.8c-1.9 2.1-3.7 4.3-5.6 6.4v-6.4h-1.5v9.3h.8l5.6-6.5Zm9.5-9.2v3.5h-4.6v-3.5h-1.5v9.3h1.5v-4.3h4.6v4.3h1.5v-9.3Zm12.3 4.6a4.701 4.701 0 1 0-4.7 4.6 4.492 4.492 0 0 0 4.7-4.6Zm-1.6 0a3.077 3.077 0 0 1-3.1 3.2 3.019 3.019 0 0 1-3.1-3.2 3.077 3.077 0 0 1 3.1-3.2 3.019 3.019 0 0 1 3.1 3.2Zm4.5-.8v-2.4h1.9a1.72 1.72 0 0 1 .8.1 1.214 1.214 0 0 1 0 2.2 1.72 1.72 0 0 1-.8.1Zm0 4v-2.8h2.5c.5 0 .6 0 .9.2a1.292 1.292 0 0 1 .9 1.2 1.2 1.2 0 0 1-.9 1.2 1.69 1.69 0 0 1-.9.2Zm-1.5 1.4h4.3a3.06 3.06 0 0 0 1.5-.3 2.565 2.565 0 0 0 1.5-2.4 2.424 2.424 0 0 0-1.5-2.3 1.99 1.99 0 0 0 .7-1.6 2.775 2.775 0 0 0-1.4-2.4 3.06 3.06 0 0 0-1.5-.3h-3.7l.1 9.3Z" fill="#5c6666"/></svg>