<svg xmlns="http://www.w3.org/2000/svg"><defs><symbol viewBox="0 0 14 13" xmlns="http://www.w3.org/2000/svg" id="tg"><path d="M12.454.712a1.477 1.477 0 0 0-.46.108h-.002c-.14.056-.807.334-1.821.754L6.535 3.09C3.927 4.176 1.363 5.246 1.363 5.246l.03-.011s-.176.057-.36.183a.995.995 0 0 0-.29.276.805.805 0 0 0-.136.54c.044.352.275.564.44.68.168.118.328.173.328.173h.004l2.404.801c.108.343.733 2.376.883 2.844.088.28.175.455.283.588a.693.693 0 0 0 .186.172.554.554 0 0 0 .121.051l-.025-.006c.008.002.014.008.02.01.019.006.032.008.057.011.381.114.687-.12.687-.12l.017-.013 1.42-1.28 2.38 1.807.053.023c.496.215.998.095 1.264-.116.267-.213.371-.485.371-.485l.017-.044 1.84-9.322c.051-.23.065-.445.007-.655a.881.881 0 0 0-.91-.641Zm-.05 1c-.002.03.004.026-.01.085v.006l-1.821 9.224c-.008.014-.021.042-.058.07-.038.031-.069.05-.229-.013l-2.91-2.208-1.758 1.586.37-2.334 4.754-4.386c.196-.18.131-.218.131-.218.013-.221-.296-.065-.296-.065L4.58 7.135l-.002-.01-2.873-.957v-.002l-.008-.002.015-.006.016-.008.015-.005 5.174-2.157 3.634-1.515c1.011-.42 1.76-.73 1.802-.746.04-.016.021-.016.05-.016Z"/></symbol><symbol viewBox="0 0 16 18" xmlns="http://www.w3.org/2000/svg" id="wa"><path fill-rule="evenodd" clip-rule="evenodd" d="M8.033 16.9H8.03a7.959 7.959 0 0 1-3.807-.97L0 17.038l1.13-4.128A7.952 7.952 0 0 1 .067 8.927C.069 4.535 3.642.961 8.033.961c2.132.001 4.132.831 5.636 2.337A7.918 7.918 0 0 1 16 8.934c-.002 4.391-3.574 7.964-7.967 7.966Zm-3.612-2.412.242.143a6.612 6.612 0 0 0 3.37.923h.003c3.65 0 6.62-2.97 6.621-6.622 0-1.769-.687-3.432-1.937-4.684a6.577 6.577 0 0 0-4.682-1.942 6.631 6.631 0 0 0-6.624 6.621c0 1.251.35 2.47 1.012 3.524l.158.25-.669 2.444 2.506-.657Zm7.625-3.66c-.05-.083-.182-.133-.382-.233-.199-.1-1.177-.581-1.36-.648-.182-.066-.315-.1-.448.1-.132.2-.514.648-.63.78-.116.133-.232.15-.431.05-.2-.1-.84-.31-1.601-.988-.592-.528-.991-1.18-1.107-1.379-.116-.199-.013-.307.087-.406.09-.09.199-.232.299-.349.1-.116.132-.199.199-.332.066-.133.033-.249-.017-.348-.05-.1-.448-1.08-.614-1.478-.161-.389-.325-.336-.448-.342a7.913 7.913 0 0 0-.381-.007.731.731 0 0 0-.53.249c-.183.2-.698.68-.698 1.66 0 .98.714 1.927.813 2.06.1.133 1.404 2.143 3.4 3.005.476.206.846.328 1.135.42.477.151.911.13 1.254.079.383-.058 1.178-.482 1.344-.947.166-.465.166-.863.116-.946Z"/></symbol><symbol viewBox="0 0 13 12" xmlns="http://www.w3.org/2000/svg" id="arrow"><path d="m6.547 11.422-1.164-1.156 3.5-3.508H.367V5.062h8.516l-3.5-3.507L6.547.39l5.508 5.515-5.508 5.516Z"/></symbol><symbol viewBox="0 0 16 12.8" xmlns="http://www.w3.org/2000/svg" id="voice"><path d="M13.7.7c-.3-.2-.7-.2-1 0-.3.3-.4.8-.1 1.1 2.5 2.5 2.5 6.6 0 9-.3.3-.3.8 0 1.1.2.2.3.2.6.2.2 0 .4-.1.6-.2 3-2.9 3-8.1-.1-11.2z"/><path d="M11.3 3c-.3-.2-.7-.2-1 0-.3.4-.4.8-.1 1.2 1.3 1.3 1.3 3.3 0 4.6-.3.3-.3.8 0 1.1.2.2.3.2.6.2.2 0 .4-.1.6-.2 1.9-2 1.9-5-.1-6.9zM7.5.1c-.3-.2-.6-.1-.9.1l-3 3h-2C.7 3.2 0 3.9 0 4.8V8c0 .9.7 1.6 1.6 1.6h2.1l3 3c.2.2.3.2.6.2.1 0 .2 0 .3-.1.2-.2.4-.4.4-.7V.8c0-.3-.2-.6-.5-.7z"/></symbol><symbol viewBox="0 0 41 46" xmlns="http://www.w3.org/2000/svg" id="play"><path d="M39 26.5c2.7-1.5 2.7-5.4 0-6.9L6 .5C3.3-1 0 .9 0 4v38c0 3.1 3.3 5 6 3.5l33-19z"/></symbol><symbol viewBox="0 0 13 13" xmlns="http://www.w3.org/2000/svg" id="x"><path d="M13 1.4 11.6 0 6.5 5.1 1.4 0 0 1.4l5.1 5.1L0 11.6 1.4 13l5.1-5.1 5.1 5.1 1.4-1.4-5.1-5.1z"/></symbol></defs></svg>